<svg xmlns="http://www.w3.org/2000/svg" viewBox="0 0 512 512"><defs><linearGradient id="g" x1="0" y1="0" x2="1" y2="1"><stop stop-color="#39db86"/><stop offset="1" stop-color="#4fa3ff"/></linearGradient></defs><rect width="512" height="512" rx="118" fill="#07101f"/><circle cx="256" cy="256" r="185" fill="url(#g)"/><path d="M256 133l53 39 65-1 20 62 39 52-52 39-20 62-65-1-53 39-53-39-65 1-20-62-52-39 39-52 20-62 65 1z" fill="#07101f"/><path d="M256 198l55 40-21 65h-68l-21-65z" fill="#f8fbff"/><path d="M201 238l-54-20m164 20 54-20M222 303l-24 59m92-59 24 59" fill="none" stroke="#f8fbff" stroke-width="20" stroke-linecap="round"/></svg>
